<?xml version="1.0" encoding="UTF-8" standalone="no"?>
<!-- Created with Inkscape (http://www.inkscape.org/) -->

<svg
   xmlns:dc="http://purl.org/dc/elements/1.1/"
   xmlns:cc="http://creativecommons.org/ns#"
   xmlns:rdf="http://www.w3.org/1999/02/22-rdf-syntax-ns#"
   xmlns:svg="http://www.w3.org/2000/svg"
   xmlns="http://www.w3.org/2000/svg"
   xmlns:xlink="http://www.w3.org/1999/xlink"
   xmlns:sodipodi="http://sodipodi.sourceforge.net/DTD/sodipodi-0.dtd"
   xmlns:inkscape="http://www.inkscape.org/namespaces/inkscape"
   width="253.94835mm"
   height="63.338604mm"
   viewBox="0 0 899.81699 224.42812"
   id="svg2"
   version="1.1"
   inkscape:version="0.91 r13725"
   sodipodi:docname="disenho-tazos.svg"
   inkscape:export-filename="/home/ch01/slides/tam-pec3-assets/img/diseñotazos.png"
   inkscape:export-xdpi="90"
   inkscape:export-ydpi="90">
  <defs
     id="defs4">
    <marker
       inkscape:stockid="Arrow2Mstart"
       orient="auto"
       refY="0"
       refX="0"
       id="Arrow2Mstart"
       style="overflow:visible"
       inkscape:isstock="true">
      <path
         id="path4270"
         style="fill:#000000;fill-opacity:1;fill-rule:evenodd;stroke:#000000;stroke-width:0.625;stroke-linejoin:round;stroke-opacity:1"
         d="M 8.7185878,4.0337352 -2.2072895,0.01601326 8.7185884,-4.0017078 c -1.7454984,2.3720609 -1.7354408,5.6174519 -6e-7,8.035443 z"
         transform="scale(0.6,0.6)"
         inkscape:connector-curvature="0" />
    </marker>
    <marker
       inkscape:stockid="Arrow2Mend"
       orient="auto"
       refY="0"
       refX="0"
       id="Arrow2Mend"
       style="overflow:visible"
       inkscape:isstock="true">
      <path
         id="path4273"
         style="fill:#000000;fill-opacity:1;fill-rule:evenodd;stroke:#000000;stroke-width:0.625;stroke-linejoin:round;stroke-opacity:1"
         d="M 8.7185878,4.0337352 -2.2072895,0.01601326 8.7185884,-4.0017078 c -1.7454984,2.3720609 -1.7354408,5.6174519 -6e-7,8.035443 z"
         transform="scale(-0.6,-0.6)"
         inkscape:connector-curvature="0" />
    </marker>
    <marker
       inkscape:stockid="Arrow2Lend"
       orient="auto"
       refY="0"
       refX="0"
       id="Arrow2Lend"
       style="overflow:visible"
       inkscape:isstock="true">
      <path
         id="path4267"
         style="fill:#000000;fill-opacity:1;fill-rule:evenodd;stroke:#000000;stroke-width:0.625;stroke-linejoin:round;stroke-opacity:1"
         d="M 8.7185878,4.0337352 -2.2072895,0.01601326 8.7185884,-4.0017078 c -1.7454984,2.3720609 -1.7354408,5.6174519 -6e-7,8.035443 z"
         transform="matrix(-1.1,0,0,-1.1,-1.1,0)"
         inkscape:connector-curvature="0" />
    </marker>
  </defs>
  <sodipodi:namedview
     id="base"
     pagecolor="#ffffff"
     bordercolor="#666666"
     borderopacity="1.0"
     inkscape:pageopacity="0.0"
     inkscape:pageshadow="2"
     inkscape:zoom="0.98994949"
     inkscape:cx="516.19788"
     inkscape:cy="36.531559"
     inkscape:document-units="px"
     inkscape:current-layer="layer1"
     showgrid="false"
     fit-margin-top="0"
     fit-margin-left="0"
     fit-margin-right="0"
     fit-margin-bottom="0"
     inkscape:window-width="1680"
     inkscape:window-height="973"
     inkscape:window-x="0"
     inkscape:window-y="25"
     inkscape:window-maximized="1" />
  <metadata
     id="metadata7">
    <rdf:RDF>
      <cc:Work
         rdf:about="">
        <dc:format>image/svg+xml</dc:format>
        <dc:type
           rdf:resource="http://purl.org/dc/dcmitype/StillImage" />
        <dc:title></dc:title>
      </cc:Work>
    </rdf:RDF>
  </metadata>
  <g
     inkscape:label="Layer 1"
     inkscape:groupmode="layer"
     id="layer1"
     transform="translate(78.022958,-256.1573)">
    <circle
       style="opacity:1;fill:#ffffff;fill-opacity:1;stroke:#000000;stroke-width:6;stroke-linecap:round;stroke-linejoin:miter;stroke-miterlimit:10;stroke-dasharray:none;stroke-dashoffset:0;stroke-opacity:1"
       id="path4136"
       cx="217.1828"
       cy="388.69199"
       r="88.893425"
       inkscape:export-xdpi="90"
       inkscape:export-ydpi="90" />
    <circle
       style="opacity:1;fill:#ffffff;fill-opacity:1;stroke:#000000;stroke-width:6;stroke-linecap:round;stroke-linejoin:miter;stroke-miterlimit:10;stroke-dasharray:none;stroke-dashoffset:0;stroke-opacity:1"
       id="path4136-3"
       cx="449.51788"
       cy="388.69199"
       r="88.893425"
       inkscape:export-xdpi="90"
       inkscape:export-ydpi="90" />
    <text
       xml:space="preserve"
       style="font-style:normal;font-weight:normal;font-size:50px;line-height:125%;font-family:Sans;letter-spacing:0px;word-spacing:0px;fill:#000000;fill-opacity:1;stroke:none;stroke-width:1px;stroke-linecap:butt;stroke-linejoin:miter;stroke-opacity:1"
       x="144.92938"
       y="278.42291"
       id="text4155"
       sodipodi:linespacing="125%"
       inkscape:export-xdpi="90"
       inkscape:export-ydpi="90"><tspan
         sodipodi:role="line"
         id="tspan4157"
         x="144.92938"
         y="278.42291"
         style="font-size:30px">ANVERSO</tspan></text>
    <text
       xml:space="preserve"
       style="font-style:normal;font-weight:normal;font-size:50px;line-height:125%;font-family:Sans;letter-spacing:0px;word-spacing:0px;fill:#000000;fill-opacity:1;stroke:none;stroke-width:1px;stroke-linecap:butt;stroke-linejoin:miter;stroke-opacity:1"
       x="377.46222"
       y="278.42291"
       id="text4155-6"
       sodipodi:linespacing="125%"
       inkscape:export-xdpi="90"
       inkscape:export-ydpi="90"><tspan
         sodipodi:role="line"
         id="tspan4157-7"
         x="377.46222"
         y="278.42291"
         style="font-size:30px">REVERSO</tspan></text>
    <path
       style="fill:#000000"
       d="m 245.39649,466.18506 c -2.93377,-0.57722 -5.35856,-1.47179 -7.94292,-2.93031 -1.39316,-0.78625 -3.22864,-2.59617 -3.66961,-3.61852 -0.1515,-0.35126 -0.5705,-1.07983 -0.93109,-1.61908 -0.95268,-1.42468 -1.88339,-3.81949 -2.3412,-6.02425 -0.31179,-1.50145 -0.39707,-3.01181 -0.38677,-6.84962 0.0143,-5.339 -0.35972,-8.17259 -1.3298,-10.07412 -0.43598,-0.8546 -0.91345,-1.05664 -0.91925,-0.38897 -0.001,0.15 -0.25358,0.73646 -0.56063,1.30322 -0.30705,0.56677 -0.82795,1.54572 -1.15756,2.17546 -0.32962,0.62974 -0.72495,1.35109 -0.87851,1.60298 -0.15357,0.2519 -0.50996,0.87019 -0.79199,1.37399 -0.28204,0.50379 -0.74219,1.28315 -1.02258,1.73191 -0.93702,1.49971 -4.59918,6.0373 -6.03228,7.47429 -0.77907,0.78117 -1.45246,1.51801 -1.49645,1.63741 -0.18407,0.4997 -2.42096,2.67434 -3.94047,3.8308 -0.89948,0.68458 -2.25371,1.73866 -3.0094,2.34239 -1.56939,1.25383 -3.23601,1.9792 -6.98441,3.03984 -3.66908,1.0382 -5.42767,1.10588 -8.58405,0.33036 -2.71079,-0.66604 -6.78956,-2.27231 -8.81971,-3.47331 -3.81647,-2.25777 -6.14564,-5.05592 -8.07451,-9.7003 -1.17563,-2.83072 -1.29213,-3.66703 -1.88192,-13.5108 -0.19243,-3.21169 -0.45015,-6.25162 -0.57269,-6.75541 -0.1225,-0.5038 -0.22702,-1.43124 -0.2322,-2.06098 -0.0156,-1.90645 -0.75746,-4.2523 -1.9063,-6.02825 -1.68213,-2.60029 -5.76411,-6.63324 -9.65958,-9.54354 -1.88922,-1.41143 -3.69257,-2.69944 -4.00744,-2.86225 -1.24241,-0.64238 -4.81824,-3.49729 -5.98749,-4.78037 -1.29761,-1.42392 -2.66737,-3.93566 -3.20019,-5.86818 -0.17363,-0.62976 -0.30853,-2.12396 -0.29976,-3.32046 0.035,-4.77136 2.48893,-10.1432 7.04279,-15.41667 2.14813,-2.48758 4.67368,-4.85372 6.47211,-6.06357 1.42117,-0.95608 1.78223,-1.31598 1.82656,-1.82078 0.11511,-1.31182 1.80197,-5.61646 2.45788,-6.27237 0.83756,-0.83756 1.09503,-1.77633 0.96014,-3.50095 -0.0598,-0.76434 -0.17215,-2.16208 -0.24973,-3.10611 -0.0776,-0.94402 -0.34208,-2.3673 -0.5878,-3.16285 l -0.44677,-1.44646 0.49156,-1.01544 c 0.27036,-0.55849 0.9825,-1.50531 1.58256,-2.10407 0.86837,-0.86649 1.22574,-1.47447 1.75143,-2.97964 0.57257,-1.63939 0.62008,-1.9557 0.35696,-2.377 -0.16691,-0.26729 -0.35601,-0.97456 -0.42022,-1.57174 -0.10059,-0.93511 -0.0256,-1.21157 0.5401,-1.99246 1.09657,-1.51378 1.75514,-2.22394 2.59467,-2.79797 1.24634,-0.85217 2.51896,-2.1343 2.51896,-2.53781 0,-0.20114 0.0937,-0.46361 0.20814,-0.58326 0.30612,-0.31999 -0.15127,-2.82921 -0.67894,-3.72469 -0.57561,-0.97681 -1.15187,-3.79633 -1.00686,-4.92637 0.25241,-1.9672 1.73444,-4.00574 3.47344,-4.77771 1.85675,-0.82422 2.17486,-2.1419 0.86668,-3.5899 -0.92495,-1.02381 -0.99787,-1.57129 -0.31196,-2.34234 1.21714,-1.3682 1.7578,-2.48976 1.63642,-3.39468 -0.0649,-0.48435 0.004,-1.2497 0.15256,-1.70079 0.34265,-1.03823 1.42506,-2.21021 2.04131,-2.21021 0.59032,0 2.3211,1.76853 2.3211,2.37174 0,0.62132 -0.97405,1.83619 -1.9615,2.44648 -0.81969,0.50659 -2.84744,3.04032 -2.84744,3.55794 0,0.14831 0.16531,0.40683 0.36735,0.57452 0.85462,0.70926 1.10162,2.9368 0.43796,3.94967 -0.218,0.3327 -0.94969,0.92149 -1.62599,1.30843 -0.6763,0.38694 -1.53246,1.0709 -1.90258,1.51992 -0.58418,0.70874 -0.6587,0.95609 -0.56498,1.87549 0.23689,2.32385 0.54447,3.78556 0.99041,4.70676 0.89706,1.85309 0.51734,6.77166 -0.52278,6.77166 -0.16253,0 -0.64969,0.36542 -1.08258,0.81205 -0.43289,0.44664 -1.20985,1.05983 -1.72657,1.36264 -1.93602,1.13457 -2.44135,2.37818 -1.90765,4.69464 0.23883,1.03663 0.0157,2.45346 -0.55893,3.55002 -0.13201,0.2519 -0.2605,0.56105 -0.28555,0.68699 -0.15932,0.80142 -0.65582,1.54553 -1.78406,2.67377 -0.88779,0.88779 -1.28389,1.46403 -1.28389,1.86776 0,0.32114 0.0927,0.64116 0.20598,0.71118 0.2108,0.13029 0.74232,2.07769 0.84763,3.10568 0.0322,0.31487 0.0756,1.94121 0.0965,3.61409 0.0407,3.26676 0.0267,3.31782 -1.31146,4.79421 -0.82945,0.91513 -2.21291,4.39755 -1.80865,4.55269 0.15156,0.0582 0.97227,-0.15651 1.82381,-0.47704 1.61502,-0.60789 3.97051,-0.9426 8.33949,-1.18504 2.03669,-0.113 2.9395,-0.0594 4.26925,0.2538 l 1.68637,0.39713 1.11217,-0.61794 c 0.86081,-0.47828 3.41423,-1.98135 3.94092,-2.31985 0.0445,-0.0285 -0.13835,-0.71049 -0.40622,-1.5154 -0.68232,-2.05037 -0.66456,-2.85698 0.0913,-4.14676 0.86601,-1.47772 1.51404,-1.88888 2.39919,-1.52225 0.63822,0.26438 1.50212,0.23671 3.78888,-0.12131 0.85925,-0.13453 0.94137,-0.21664 1.32589,-1.3256 0.22544,-0.65021 0.55231,-1.85202 0.72638,-2.67067 0.27925,-1.31336 1.04259,-3.36372 2.68552,-7.21341 0.72377,-1.69591 2.29426,-3.99297 2.82804,-4.13639 0.25682,-0.069 0.75301,-0.0166 1.10265,0.1163 0.34965,0.13293 1.32457,0.24102 2.16653,0.24019 1.93788,-10e-4 2.56527,-0.38942 3.93528,-2.43061 0.56678,-0.84444 1.31338,-1.74441 1.65912,-1.99997 l 0.62864,-0.46461 0.67883,0.50187 c 0.37336,0.27604 0.88161,0.50187 1.12947,0.50187 0.57097,0 1.39987,1.03691 1.39987,1.75115 0,0.62251 1.41286,3.67692 2.2801,4.92926 0.3203,0.46254 0.78847,0.90074 1.04036,0.97378 0.29586,0.0858 1.45701,-0.35382 3.27988,-1.24173 1.55204,-0.75598 3.00893,-1.37451 3.23751,-1.37451 0.2286,0 0.93994,0.36067 1.58077,0.80148 1.65716,1.13992 2.18648,1.07185 3.703,-0.47616 1.44359,-1.47358 2.49575,-2.07938 4.15942,-2.39489 0.65029,-0.1233 1.36231,-0.38709 1.58226,-0.58616 0.21997,-0.19905 0.78345,-0.44841 1.25221,-0.55414 0.76131,-0.1717 0.92198,-0.1225 1.50523,0.46072 0.62092,0.62092 0.91288,1.83315 0.44151,1.83315 -0.1163,0 -0.50272,0.24273 -0.85875,0.53939 -0.82838,0.69028 -2.62751,0.93171 -3.13812,0.42112 -0.30508,-0.3051 -0.47699,-0.31205 -1.267,-0.0514 -0.50271,0.16591 -1.20248,0.60442 -1.55506,0.97448 -0.35258,0.37004 -1.00171,0.82165 -1.44254,1.00357 -0.44081,0.18192 -1.06834,0.65176 -1.3945,1.04411 -0.52736,0.63436 -0.68421,0.69624 -1.41664,0.55883 -0.45299,-0.085 -1.34295,-0.51174 -1.97768,-0.94836 -1.28847,-0.88632 -1.49183,-0.92789 -2.31007,-0.47223 -4.4766,2.4929 -6.23612,2.96373 -6.95807,1.8619 -0.20341,-0.31044 -0.36983,-0.6783 -0.36983,-0.81747 0,-0.13917 -0.30915,-0.70237 -0.687,-1.25154 -0.37784,-0.54919 -0.68699,-1.0763 -0.68699,-1.17137 0,-0.0951 -0.36067,-0.8698 -0.80148,-1.72163 -0.44083,-0.85182 -0.8015,-1.74873 -0.8015,-1.99311 0,-0.33156 -0.2163,-0.48493 -0.8521,-0.60421 -0.53244,-0.0999 -0.8823,-0.0693 -0.93257,0.0815 -0.0442,0.13273 -0.3306,0.60996 -0.63635,1.06052 -0.30577,0.45056 -0.55593,0.90021 -0.55593,0.99921 0,0.30899 -1.90286,1.55238 -2.84495,1.85897 -0.5841,0.19009 -1.50561,0.24674 -2.63347,0.16188 -1.46453,-0.11023 -1.81417,-0.0656 -2.24291,0.28615 -0.55239,0.45314 -2.1989,3.48014 -2.45831,4.51941 -0.0884,0.35456 -0.29543,0.79921 -0.45986,0.98814 -0.30389,0.34916 -0.86032,2.07408 -1.40354,4.35093 -0.96214,4.03271 -1.27678,4.57993 -2.63335,4.57993 -0.47607,0 -1.15215,0.10891 -1.5024,0.24213 -0.35026,0.13316 -1.28771,0.25885 -2.08324,0.2793 -1.1622,0.0298 -1.53895,0.13572 -1.91743,0.53858 -0.63874,0.67992 -0.6416,2.19494 -0.007,3.50571 0.27079,0.55893 0.49233,1.36281 0.49233,1.7864 0,0.66462 -0.11049,0.81633 -0.80634,1.10706 -1.0852,0.45344 -3.08662,1.69681 -3.08662,1.91756 0,0.22836 2.23081,1.08378 3.36449,1.29014 1.96803,0.35825 3.768,1.4865 6.16696,3.86558 2.2785,2.25959 3.52487,3.92456 4.63508,6.19176 0.30838,0.62975 0.68466,1.29956 0.83619,1.48849 0.15151,0.18891 0.33392,0.54959 0.40534,0.80148 0.0714,0.2519 0.38406,1.18234 0.69475,2.06765 0.48851,1.39197 0.56501,2.01129 0.56573,4.57993 9.1e-4,3.02294 -0.0762,3.7198 -0.74416,6.73696 -0.29151,1.31659 -0.40045,3.35388 -0.47755,8.93088 -0.0549,3.97385 -0.14877,8.35872 -0.20849,9.74415 -0.49644,11.5149 -0.47792,10.47463 -0.23,12.91315 0.18505,1.81997 0.783,2.54458 2.09877,2.54328 1.85243,-10e-4 2.71384,-1.05769 4.57349,-5.60595 1.43887,-3.51913 3.97899,-8.68892 5.02961,-10.23655 0.82816,-1.2199 3.83546,-4.53737 4.11315,-4.53737 0.0693,0 0.71072,-0.4468 1.42535,-0.9929 1.77103,-1.35337 4.85794,-2.98382 6.79526,-3.58915 2.40271,-0.75075 6.27367,-0.6998 8.86459,0.11669 2.76087,0.87004 6.22201,2.70846 7.60023,4.03696 0.64236,0.61918 1.47708,1.34193 1.85493,1.60611 0.69094,0.48306 3.20164,3.83988 3.82924,5.1197 0.57751,1.17769 1.71851,4.94448 2.15033,7.09891 0.35182,1.75518 0.41453,3.30601 0.42272,10.45238 0.008,7.40419 0.0533,8.44141 0.38114,8.81638 0.20435,0.23374 0.53973,0.78564 0.74529,1.22646 0.72068,1.54541 2.60264,2.28311 3.75874,1.47335 0.72034,-0.50454 1.25821,-1.6602 2.18139,-4.68681 0.44054,-1.44427 0.907,-2.89874 1.03659,-3.23215 0.12963,-0.33341 0.18209,-0.65973 0.1167,-0.72516 -0.0655,-0.0655 0.07,-0.32438 0.30087,-0.57544 0.2309,-0.25107 0.78049,-1.04264 1.22132,-1.75903 1.03388,-1.68021 4.24151,-4.49054 6.1829,-5.41712 5.82606,-2.78055 10.50912,-3.08968 15.22326,-1.00486 1.30962,0.57918 2.97192,2.38621 3.24374,3.52619 0.0797,0.33423 0.22103,0.71074 0.31407,0.83669 0.0931,0.12593 0.23833,0.8016 0.32287,1.50146 l 0.15369,1.27246 -1.09867,0.49045 c -0.60428,0.26976 -1.35631,0.5555 -1.67117,0.63498 -4.34605,1.09714 -10.30967,5.46452 -12.88317,9.4348 -0.34521,0.53259 -0.62765,1.20755 -0.62765,1.49994 0,0.29238 -0.11472,0.64628 -0.25483,0.78643 -0.14017,0.14017 -0.34329,0.72827 -0.45139,1.30691 -0.18605,0.99591 -1.11783,3.12434 -3.24223,7.40609 -0.51624,1.04052 -1.43535,2.48319 -2.04247,3.20596 -0.60711,0.72278 -1.21612,1.52022 -1.35334,1.77212 -0.35046,0.64332 -2.33341,2.14209 -3.23591,2.44579 -0.41535,0.13977 -0.85823,0.32801 -0.98418,0.41832 -0.12593,0.0903 -0.5312,0.23662 -0.90054,0.32513 -0.36936,0.0885 -1.07072,0.35378 -1.5586,0.58949 -0.86822,0.4195 -3.04327,0.8215 -5.32674,0.98453 -0.62975,0.045 -2.07243,-0.10072 -3.20596,-0.32375 z m 7.92472,-2.37314 c 1.24241,-0.19301 2.89147,-1.40888 3.83276,-2.82595 0.83471,-1.25661 0.83734,-1.26834 0.83734,-3.7419 0,-1.55242 0.0857,-2.45276 0.22901,-2.40501 0.12593,0.042 0.24438,0.68566 0.26319,1.43042 0.0189,0.74477 0.10931,1.54019 0.20113,1.7676 0.23847,0.5907 -0.0569,2.42976 -0.50121,3.1211 l -0.37751,0.58737 0.51825,-0.45798 c 0.85638,-0.75682 3.67459,-4.39037 3.67459,-4.73771 0,-0.17772 0.0965,-0.42102 0.21449,-0.54067 0.33819,-0.34303 1.56873,-5.76252 1.73925,-7.65996 0.17319,-1.92713 0.60705,-3.82788 1.15625,-5.06569 0.3576,-0.80597 0.35086,-0.8563 -0.23996,-1.79223 -1.35675,-2.14921 -4.4234,-2.18123 -6.59123,-0.0688 -0.4723,0.46023 -0.85874,1.02528 -0.85874,1.25565 0,0.23038 -0.14406,0.76367 -0.32014,1.18509 l -0.32015,0.76621 1.03687,0.14212 c 2.43049,0.33313 3.7486,2.20069 3.87645,5.4924 l 0.0723,1.86372 -0.30885,-1.2062 c -0.16985,-0.66342 -0.47776,-1.39287 -0.68422,-1.62101 -0.20647,-0.22814 -0.37539,-0.51202 -0.37539,-0.63084 0,-0.44953 -1.48507,-1.99315 -2.20824,-2.29532 -1.34058,-0.56012 -2.37952,-0.4018 -3.36325,0.51251 -0.48237,0.44832 -0.84304,0.84108 -0.80148,0.87279 0.0416,0.0317 0.71961,0.4496 1.50678,0.92867 0.98387,0.59877 1.43123,1.01338 1.43123,1.32645 0,0.39431 -0.1097,0.43759 -0.81791,0.32268 -1.02299,-0.16601 -3.96366,-1.6055 -5.06051,-2.47717 -1.37982,-1.09653 -1.55486,-0.81127 -0.66929,1.09068 0.3007,0.6458 0.65384,1.24037 0.78476,1.32128 0.2563,0.15841 0.95403,1.4574 0.95403,1.77617 0,0.10653 -0.24269,0.19381 -0.53928,0.19381 -0.3539,0 -0.93238,-0.41564 -1.68282,-1.20912 -1.49303,-1.57865 -2.24377,-2.79341 -2.70328,-4.37407 -0.20574,-0.7077 -0.4219,-1.28671 -0.48036,-1.28671 -0.14018,0 -1.31742,0.7507 -1.46418,0.93366 -0.81562,1.0169 -5.39019,1.89475 -7.21339,1.38422 -0.80798,-0.22623 -1.11852,-0.18225 -2.63347,0.37304 l -1.71748,0.62953 1.77466,0.12593 c 2.96135,0.21007 2.89683,0.7713 -0.24087,2.09507 -0.81257,0.34282 -1.53864,0.68453 -1.61346,0.75936 -0.29007,0.29006 0.59591,0.56229 1.84088,0.56563 1.98814,0.005 2.05652,0.66214 0.14257,1.36915 -0.52387,0.19352 -0.94751,0.45341 -0.94142,0.57755 0.0342,0.699 3.848,2.00149 5.2734,1.80101 2.26162,-0.3181 3.71172,-1.00591 5.27608,-2.50253 0.90832,-0.86898 1.61122,-1.37753 1.73412,-1.25463 0.25052,0.25053 -0.39159,1.18362 -1.60518,2.33265 -1.07177,1.01476 -4.15566,2.42393 -6.0253,2.75327 -0.75847,0.1336 -1.37904,0.32293 -1.37904,0.42073 0,0.0978 -0.20609,0.23171 -0.45798,0.29758 -0.2519,0.0659 -0.458,0.27145 -0.458,0.45684 0,0.51874 2.90584,3.53777 4.05116,4.20899 0.91841,0.53822 1.17168,0.58334 2.55347,0.45491 2.64314,-0.24565 3.72238,-0.68768 5.01439,-2.0538 1.2793,-1.35265 2.0009,-2.60484 2.24213,-3.8907 0.0878,-0.46784 0.25095,-0.90709 0.36261,-0.9761 0.57031,-0.35248 -0.15342,2.70353 -0.99271,4.19176 -0.45258,0.80255 -1.04933,1.44066 -1.8055,1.93063 -0.62121,0.40253 -1.05021,0.79838 -0.95333,0.87965 0.30209,0.25344 1.96575,0.68106 2.92409,0.75159 0.96085,0.0708 1.52255,0.0366 2.88679,-0.1753 z m 7.99056,-8.23577 c 0,-0.44825 0.1031,-0.815 0.22899,-0.815 0.12594,0 0.229,0.30306 0.229,0.67347 0,0.37042 -0.1031,0.73717 -0.229,0.815 -0.13628,0.0842 -0.22899,-0.18844 -0.22899,-0.67347 z m -61.37117,3.99738 c 2.56105,-0.53401 3.83186,-1.18454 5.55572,-2.84401 1.58338,-1.52423 1.85061,-2.62689 1.8922,-7.8078 l 0.0331,-4.12194 -0.76958,-1.34325 c -0.57029,-0.99542 -0.70598,-1.41989 -0.524,-1.63915 0.19186,-0.23117 0.46165,-0.0626 1.23351,0.77076 1.41708,1.52997 1.57802,1.95358 1.63734,4.30963 0.0292,1.15693 0.12158,2.21441 0.20529,2.34997 0.0838,0.13557 0.0508,0.24649 -0.0731,0.24649 -0.13534,0 -0.20938,0.89935 -0.18526,2.25021 l 0.0401,2.25021 1.14498,-0.0985 c 1.27459,-0.1097 1.48005,-0.27609 3.49332,-2.82919 1.02321,-1.29758 1.2837,-1.84221 1.7888,-3.73992 0.58748,-2.2072 0.58884,-2.23293 0.21705,-4.09167 -0.24871,-1.24348 -0.79178,-2.72368 -1.62005,-4.41566 -1.32568,-2.70811 -1.72223,-3.12302 -4.05087,-4.23847 -1.38842,-0.66508 -1.39993,-0.93691 -0.0222,-0.52224 1.20278,0.36199 2.39349,1.19141 2.99458,2.08599 0.22288,0.33167 0.8914,1.07507 1.4856,1.65198 1.36228,1.32263 2.34476,2.86555 2.8858,4.53196 0.23219,0.71511 0.51981,1.33274 0.63915,1.37253 0.11934,0.0397 0.63967,-0.3151 1.15627,-0.78864 0.81658,-0.74851 1.05063,-1.20494 1.79185,-3.49443 0.46893,-1.4484 1.03777,-3.14871 1.26408,-3.77845 0.22633,-0.62974 0.46633,-1.38734 0.53334,-1.68355 0.27729,-1.22577 -1.44303,-6.01389 -2.60803,-7.25888 -0.24167,-0.25824 -1.16749,-0.82177 -2.05738,-1.25227 -2.21557,-1.07182 -1.44413,-1.3398 0.91562,-0.31806 1.96119,0.84916 3.30682,2.13327 4.17435,3.98347 0.55298,1.17936 1.19729,1.52414 2.50316,1.33948 0.84689,-0.11973 2.02914,-2.65404 2.03174,-4.35522 0.001,-1.21152 -0.0492,-1.33629 -0.74226,-1.81163 -0.93095,-0.63856 -1.55075,-1.38828 -1.37833,-1.66725 0.0723,-0.11709 -0.0585,-0.35183 -0.29068,-0.52164 -0.23223,-0.16981 -0.30769,-0.30875 -0.16767,-0.30875 0.14001,0 0.32018,-0.29867 0.40034,-0.66371 0.1605,-0.73074 0.7453,-1.00545 1.38197,-0.64914 0.37896,0.21207 0.39954,0.14194 0.26075,-0.88869 -0.25226,-1.87317 -1.32725,-3.04306 -4.63709,-5.04644 -0.42672,-0.25828 -0.42653,-0.26716 0.009,-0.44208 0.31284,-0.12554 0.92368,0.0675 2.06096,0.65154 0.88899,0.45654 1.84454,0.89311 2.12343,0.97017 0.81687,0.2257 2.20598,2.00124 3.40342,4.35018 0.98085,1.92413 1.13712,2.12314 1.30769,1.66546 0.10653,-0.28589 0.19859,-1.73061 0.20453,-3.2105 0.007,-1.4799 0.10019,-2.69072 0.20939,-2.69072 0.37362,0 0.67857,2.07279 0.7412,5.03793 0.0531,2.51187 0.40635,3.67751 1.2079,3.98509 0.21161,0.0812 0.39969,0.11947 0.41798,0.085 2.21395,-4.17333 3.56517,-9.05682 3.56517,-12.88496 0,-2.03678 0.45358,-1.46553 0.49882,0.62824 0.0737,3.40554 -0.14145,5.31888 -0.82756,7.36332 -0.2999,0.89365 -0.6191,2.01859 -0.70931,2.49986 -0.30273,1.61504 -1.81276,4.2398 -3.36433,5.84792 -0.94084,0.97514 0.27145,0.19081 1.43396,-0.92774 1.00971,-0.97154 1.40695,-1.67438 1.6985,-3.00523 0.0985,-0.44958 0.26022,-0.6214 0.53386,-0.56718 0.41968,0.0832 0.50192,1.17138 0.16542,2.18877 -0.13306,0.40228 -0.0965,0.48985 0.16286,0.39032 0.18392,-0.0706 0.4665,0.0309 0.62796,0.22539 0.43429,0.52329 -0.0482,1.50536 -1.41385,2.8783 -0.62359,0.62688 -1.04299,1.13978 -0.932,1.13978 0.11102,0 1.17467,-0.30502 2.36371,-0.67781 3.10955,-0.97488 3.40057,-0.38865 0.66954,1.34872 -0.87702,0.55793 -1.59457,1.09894 -1.59457,1.20223 0,0.10337 0.36744,0.18782 0.81654,0.18782 0.44911,0 1.01387,0.10561 1.25504,0.23469 0.52186,0.27929 1.42312,-0.24287 3.52894,-2.04457 1.36036,-1.1639 1.72738,-1.36484 1.72738,-0.94572 0,0.25079 -1.76906,2.30599 -2.8399,3.29925 -1.03549,0.96046 -2.92543,2.14055 -3.82256,2.38683 -0.74689,0.20503 -0.75568,0.21963 -0.20744,0.34451 0.31486,0.0717 1.08213,0.18938 1.70505,0.26145 1.18991,0.13767 1.67398,0.52279 1.20637,0.95977 -0.15288,0.14286 -1.2054,0.43835 -2.33893,0.65662 -1.9437,0.37428 -3.32046,0.86524 -3.32046,1.18411 0,0.0783 0.97801,0.084 2.17338,0.0132 2.12037,-0.12646 2.75639,0.0331 2.22986,0.55967 -0.12567,0.12567 -1.18589,0.50598 -2.35615,0.84526 -1.17026,0.33927 -2.16624,0.73239 -2.21331,0.87357 -0.10099,0.30289 1.60695,0.57071 3.20879,0.50316 1.1069,-0.0467 1.71438,0.24399 1.4395,0.68876 -0.0822,0.13309 -0.89251,0.46082 -1.80058,0.7283 -0.90805,0.26746 -1.73583,0.56667 -1.83951,0.66491 -0.24236,0.22962 0.98426,0.98253 2.59297,1.59158 1.38121,0.52292 3.87005,0.63991 5.28007,0.2482 0.45931,-0.12765 1.03496,-0.52432 1.3198,-0.90957 l 0.50516,-0.68328 -0.57555,-0.14446 c -0.31655,-0.0795 -0.57555,-0.23955 -0.57555,-0.3558 0,-0.40938 0.6535,-0.45505 1.35091,-0.0944 0.38789,0.2006 0.76469,0.3627 0.83733,0.36026 0.0726,-0.003 0.16834,-2.81262 0.21267,-6.24481 0.0443,-3.43219 0.14914,-7.27084 0.23291,-8.53033 0.0841,-1.26321 0.0429,-3.26537 -0.0916,-4.46543 -0.37921,-3.38182 -2.21387,-8.68019 -3.32503,-9.60236 -0.1992,-0.16532 -0.36219,-0.43134 -0.36219,-0.59116 0,-0.33115 -1.73314,-2.12352 -3.49976,-3.61938 -1.76453,-1.49407 -7.21036,-4.04886 -8.63065,-4.04886 -0.36497,0 -0.90216,-0.0854 -1.19375,-0.18972 -0.29158,-0.10429 -1.57857,-0.11458 -2.85999,-0.0228 -2.11604,0.15161 -2.52581,0.26099 -4.46544,1.19197 -2.75823,1.32392 -6.15255,3.69687 -7.10882,4.96976 -0.41344,0.55032 -1.03256,1.36904 -1.37585,1.81938 -1.23618,1.6217 -1.71281,2.45138 -2.44364,4.25375 -0.40855,1.00759 -0.89017,2.1567 -1.07024,2.55358 -0.18008,0.39688 -0.32741,0.79351 -0.32741,0.88139 0,0.0879 -0.16317,0.53601 -0.3626,0.99587 -0.19943,0.45985 -0.50857,1.1745 -0.68699,1.58811 -0.17841,0.4136 -0.32439,0.88562 -0.32439,1.04893 0,0.1633 -0.2539,0.79843 -0.56422,1.41139 -0.31033,0.61297 -0.62957,1.41203 -0.70945,1.7757 -0.14113,0.64253 -1.53952,2.21028 -2.60373,2.91904 -0.41654,0.27741 -0.52652,0.56284 -0.52937,1.37397 -0.005,1.35545 0.2909,3.2458 0.56107,3.58709 0.11894,0.15032 0.29176,1.06284 0.38394,2.02784 0.12937,1.35499 0.0994,1.78069 -0.13174,1.86941 -0.52309,0.20073 -0.96996,-0.12065 -1.61676,-1.16292 -1.22858,-1.97966 -1.19188,-1.93971 -1.08015,-1.17565 0.0553,0.37784 0.15251,1.45985 0.21612,2.40446 0.14737,2.18836 0.331,2.98426 0.7232,3.13476 0.35611,0.13666 0.42607,1.1194 0.0943,1.32445 -0.27332,0.16893 -1.88021,-0.48648 -2.11192,-0.86139 -0.0943,-0.15255 -0.29988,-0.27736 -0.45689,-0.27736 -0.87468,0 -1.78899,-3.06826 -1.79405,-6.02053 -9.2e-4,-0.59311 -0.16907,-2.26344 -0.37346,-3.71185 -0.28978,-2.05366 -0.37195,-4.5493 -0.3732,-11.33534 -0.001,-10.24048 -0.17421,-13.2904 -0.87089,-15.41335 -0.66198,-2.0172 -0.68402,-2.04435 -1.06654,-1.31429 -0.26775,0.51103 -0.27665,0.75222 -0.0481,1.30409 0.21003,0.50707 0.21789,0.88974 0.0313,1.52391 -0.41971,1.42627 -0.4699,1.87087 -0.22805,2.02034 0.32441,0.20049 0.016,1.92765 -0.43271,2.4235 -0.20081,0.22189 -0.3841,0.86783 -0.40782,1.43722 -0.036,0.86489 0.0255,1.03418 0.37564,1.03418 0.65423,0 0.51531,0.92343 -0.28494,1.89429 l -0.70367,0.85367 0.80466,0 c 0.44255,0 0.85015,0.0773 0.90576,0.17175 0.18444,0.31326 -0.23856,1.0848 -1.00625,1.83535 -0.85636,0.83726 -0.7969,0.90278 0.33108,0.36489 0.92514,-0.44117 1.57767,-0.29294 1.36485,0.31005 -0.0795,0.22518 -0.53071,0.92466 -1.00275,1.5544 -0.52395,0.69901 -0.85639,1.3958 -0.8535,1.78893 0.003,0.35416 -0.3,1.0755 -0.67247,1.60298 -1.10875,1.57013 -1.11255,1.5453 0.17772,1.16214 1.59944,-0.47498 1.89705,-0.32872 1.70032,0.8357 -0.0858,0.5078 -0.3078,1.22761 -0.49335,1.59955 -0.18555,0.37195 -0.26575,0.79214 -0.17821,0.93379 0.0875,0.14163 0.0321,0.33607 -0.1233,0.4321 -0.21921,0.13547 -0.2053,0.29647 0.062,0.71863 0.28879,0.45595 0.29965,0.71091 0.0672,1.57454 -0.54514,2.02465 -2.48061,4.35094 -3.62,4.35094 -0.35189,0 0.0473,-0.88399 0.7431,-1.64588 0.3624,-0.39679 0.97917,-1.32232 1.37063,-2.05674 0.86681,-1.62632 0.63341,-1.70019 -1.34062,-0.42433 -0.77521,0.50105 -1.40948,0.79918 -1.40948,0.6625 0,-0.13667 -0.16687,-0.18447 -0.37082,-0.10614 -0.29644,0.11379 -0.34853,0.0256 -0.25967,-0.43919 0.0964,-0.50446 0.047,-0.56241 -0.37341,-0.43746 -0.26652,0.0792 -0.73629,0.30328 -1.04393,0.49788 -0.47004,0.29734 -1.14647,0.33171 -4.23644,0.21531 -2.02241,-0.0762 -4.2219,-0.25549 -4.88779,-0.39847 -1.34098,-0.2879 -2.06164,-0.0191 -2.58868,0.96573 -0.38346,0.7165 -0.35425,3.85304 0.0418,4.49781 0.41126,0.66935 2.42354,2.20006 3.46345,2.63456 1.83568,0.76699 4.32466,0.86295 6.24795,0.24086 1.76968,-0.57238 4.56798,-2.09085 5.71697,-3.10224 1.17352,-1.03296 1.34314,-0.89771 0.4087,0.32589 -0.60552,0.7929 -3.07103,2.92091 -3.38416,2.92091 -0.0836,0 -0.42959,0.19779 -0.76907,0.43951 -0.87312,0.62173 -3.41599,1.40143 -4.61911,1.41633 -2.14633,0.0265 -3.77487,-0.29918 -5.13922,-1.02802 -0.94312,-0.50383 -1.19444,-0.46605 -1.56166,0.2348 -0.27699,0.52868 -0.26234,0.78039 0.1167,2.00373 0.57282,1.8488 1.31569,3.36558 1.89293,3.86494 1.59648,1.38107 5.20818,2.54592 7.91042,2.55128 2.30647,0.004 4.3778,-1.21269 7.46194,-4.38518 1.45995,-1.50177 1.69793,-1.65453 1.69793,-1.08994 0,0.18892 -0.10309,0.3435 -0.22899,0.3435 -0.12593,0 -0.22899,0.1472 -0.22899,0.32713 0,0.17992 -0.1355,0.46332 -0.30109,0.62974 -0.16559,0.16643 -0.40139,0.48267 -0.52401,0.70277 -0.57576,1.03344 -3.48938,3.70921 -4.55794,4.18583 -2.70093,1.20477 -4.3971,1.34409 -7.12882,0.58559 -1.35043,-0.37498 -1.47734,-0.33982 -1.13754,0.31516 0.25901,0.49924 1.91658,1.84384 3.58303,2.9065 0.32009,0.20411 1.60821,0.651 2.86246,0.99308 2.11306,0.57629 2.39737,0.60269 3.87282,0.35963 1.8102,-0.29821 3.67048,-1.25381 4.61514,-2.37075 0.9477,-1.12053 1.99428,-3.54333 2.10444,-4.87169 0.0853,-1.02821 0.15645,-1.17238 0.53046,-1.07458 0.54435,0.14234 0.58254,1.33309 0.09,2.80751 -0.18931,0.56677 -0.44768,1.45457 -0.57414,1.9729 -0.29399,1.20487 -1.33594,2.51781 -2.75823,3.47565 -0.61589,0.41476 -1.18154,0.85402 -1.25701,0.97613 -0.18713,0.30278 1.72799,1.13771 2.29785,1.00179 0.2519,-0.0601 0.92172,-0.20594 1.48849,-0.32412 z m 43.16592,-15.98542 c -1.14187,-0.13804 -1.27481,-0.53792 -0.15706,-0.47241 0.54336,0.0318 1.03452,0.13327 1.09147,0.22541 0.15631,0.25293 -0.17059,0.33933 -0.93441,0.247 z m -9.27438,9.57006 c 0,-0.12594 -0.10917,-0.22899 -0.24251,-0.22899 -0.13338,0 -0.17883,0.10309 -0.10098,0.22899 0.0779,0.12593 0.18697,0.22899 0.24251,0.22899 0.0556,0 0.10098,-0.1031 0.10098,-0.22899 z m 1.07671,-3.34467 c -0.0255,-0.0222 -0.45841,-0.0904 -0.9622,-0.15153 -0.5038,-0.0611 -1.07057,-0.14969 -1.25949,-0.19672 -0.25462,-0.0634 -0.34967,0.12778 -0.36735,0.73915 l -0.0239,0.82466 1.32955,-0.58762 c 0.73126,-0.32319 1.30876,-0.60576 1.28334,-0.62794 z m -0.69609,-2.30757 c 0.6723,-0.21192 1.22236,-0.46592 1.22236,-0.56444 0,-0.31718 -0.7785,-0.60825 -1.834,-0.68568 l -1.02846,-0.0755 -0.071,0.85545 c -0.0824,0.99139 -0.008,1.01193 1.71117,0.47013 z m 11.75622,-2.85541 c 0,-0.11617 -0.20497,-0.10059 -0.458,0.0347 -0.2519,0.1348 -0.45799,0.28335 -0.45799,0.33011 0,0.0467 0.20609,0.0311 0.45799,-0.0347 0.2519,-0.0659 0.458,-0.21442 0.458,-0.33011 z m -10.46235,-1.79522 c 0.10231,-0.0924 -0.22515,-0.23364 -0.72766,-0.31399 -0.57849,-0.0925 -1.07662,-0.35326 -1.35785,-0.71077 -0.24429,-0.31057 -0.50441,-0.50443 -0.57804,-0.43079 -0.0737,0.0737 0.18597,0.53188 0.57691,1.01834 0.59197,0.73664 0.81021,0.86112 1.3057,0.74477 0.32722,-0.0768 0.67863,-0.21523 0.78094,-0.30756 z m 31.44122,-1.933 c 1.23009,-1.11547 1.91548,-1.62926 4.36003,-3.26831 1.87521,-1.25734 2.19744,-1.90084 2.18326,-4.3601 -0.0106,-1.93175 -0.35012,-2.83788 -1.36748,-3.65544 -1.24318,-0.99906 -2.11627,-1.04858 -4.28549,-0.2431 -1.00758,0.37415 -2.03806,0.79189 -2.28995,0.92832 -0.2519,0.13644 -0.74361,0.39234 -1.09271,0.56867 -0.34908,0.17635 -1.17346,0.81914 -1.83197,1.42842 l -1.19728,1.1078 1.37399,-0.47669 c 1.87323,-0.64991 2.8234,-0.45453 4.12643,0.8485 0.971,0.971 1.74981,2.68704 1.38115,3.04325 -0.0969,0.0936 -0.34529,-0.0849 -0.55194,-0.3968 -0.83965,-1.26734 -1.70944,-2.05688 -2.67015,-2.42376 -0.85746,-0.32747 -1.1793,-0.3454 -2.08904,-0.1163 -1.81921,0.45808 -2.87961,1.22879 -3.55188,2.58153 -0.6374,1.28256 -1.03,2.33067 -1.3374,3.57043 l -0.18716,0.75486 0.77985,-0.59484 c 2.41527,-1.8422 4.85965,-1.5679 6.2289,0.69899 0.33873,0.56079 0.67969,1.0196 0.7577,1.0196 0.078,0 0.64551,-0.45676 1.26114,-1.01501 z m 1.50746,-2.76343 c 0.005,-0.37784 0.056,-0.50469 0.11405,-0.28188 0.0581,0.22281 0.0543,0.53195 -0.008,0.68699 -0.0627,0.15504 -0.11022,-0.0272 -0.1056,-0.40511 z m -34.62317,1.9355 c 0,-0.10508 -0.10309,-0.25467 -0.22899,-0.33252 -0.12594,-0.0779 -0.23058,-0.36731 -0.2325,-0.64326 -0.003,-0.32257 -0.0664,-0.40272 -0.17971,-0.22448 -0.13632,0.21453 -0.17966,1.29461 -0.0644,1.60479 0.0506,0.13615 0.7056,-0.23938 0.7056,-0.40453 z m 0.3435,-2.04999 c 0.49408,-0.25189 1.05688,-0.46165 1.25065,-0.46611 0.19379,-0.004 0.60995,-0.15321 0.92482,-0.33055 0.55217,-0.311 0.53591,-0.32037 -0.45799,-0.2642 -1.41138,0.0797 -2.73181,0.7279 -2.74446,1.34711 -0.005,0.2359 0.0119,0.23118 1.02698,-0.28625 z m 42.26659,-2.83913 c 1.27267,-0.35506 1.27691,-0.35923 1.54574,-1.52388 0.34674,-1.50222 0.33415,-3.6673 -0.0239,-4.11565 -0.15344,-0.19209 -0.90346,-0.47547 -1.66674,-0.62974 -1.97252,-0.39866 -2.00127,-0.39248 -1.62496,0.34927 0.36688,0.72313 0.30677,5.06186 -0.0801,5.78478 -0.32212,0.6019 -0.28499,0.73128 0.17316,0.60324 0.2204,-0.0616 0.975,-0.27221 1.67689,-0.46802 z m 4.23073,-0.71333 c 1.62208,-0.1989 1.80112,-0.35296 1.63318,-1.40531 -0.10534,-0.66039 -0.42566,-1.15463 -1.27614,-1.96939 -1.37796,-1.32008 -1.85647,-1.39911 -1.85647,-0.30664 0,0.42959 -0.20477,1.43431 -0.45505,2.23272 -0.58017,1.85082 -0.57982,1.85428 0.1688,1.71093 0.34635,-0.0663 1.14991,-0.18435 1.78568,-0.26231 z m -43.52036,-0.44671 0.68698,-0.31458 -0.9545,-0.0186 c -1.09956,-0.0214 -1.73232,0.16778 -1.54962,0.46339 0.18213,0.29469 1.02035,0.23461 1.81714,-0.13029 z m -48.10814,-1.38105 c 0.89196,-0.20502 2.3223,-0.53334 3.1785,-0.72959 0.85622,-0.19626 1.69712,-0.49721 1.86869,-0.66879 0.36024,-0.36024 1.15659,-2.34103 1.00295,-2.49468 -0.23916,-0.23915 -1.74621,0.38726 -2.57354,1.0697 -1.71069,1.41111 -2.25637,0.86308 -1.04406,-1.04856 0.4984,-0.78587 0.62945,-1.17844 0.46113,-1.38126 -0.24889,-0.29988 0.34128,-1.10614 2.57667,-3.52011 0.61891,-0.66835 1.07018,-1.27029 1.00283,-1.33764 -0.22732,-0.22732 -1.05733,0.1715 -2.00546,0.96364 -0.9667,0.80766 -2.04445,1.0515 -2.04445,0.46257 0,-0.30152 1.28825,-1.63383 3.20595,-3.31562 0.62897,-0.55159 0.71008,-0.70367 0.37676,-0.70654 -0.53773,-0.004 -2.63038,1.03492 -3.25398,1.61645 -0.26002,0.24247 -0.53882,0.44087 -0.61957,0.44087 -0.0808,0 -0.51337,0.24874 -0.96138,0.55277 -1.29749,0.8805 -4.1614,1.75753 -6.19018,1.89565 -1.65935,0.113 -4.69478,-0.26029 -5.85433,-0.71989 -0.2165,-0.0858 -0.61146,0.0924 -0.99753,0.45026 -0.52888,0.49015 -0.6151,0.7187 -0.49985,1.32499 0.0766,0.40296 0.24978,1.55705 0.38485,2.56464 0.13508,1.00758 0.36672,2.0794 0.51475,2.38183 0.46003,0.93985 1.73007,1.56928 3.93315,1.94926 3.75121,0.647 5.55135,0.70672 7.5381,0.25005 z m 46.10442,-0.35148 c 1.31703,-0.75532 1.55429,-1.0297 0.57249,-0.66207 -1.51974,0.56905 -2.31719,0.99016 -2.20842,1.16615 0.17879,0.28929 0.33811,0.2402 1.63593,-0.50408 z m -1.22324,-1.95227 c 0.70428,-0.57369 1.28049,-1.08077 1.28049,-1.12686 0,-0.0461 -0.45384,0.15753 -1.00854,0.45247 -1.16042,0.61699 -1.73497,0.75015 -2.14017,0.49598 -0.15744,-0.0987 -0.28625,-0.12673 -0.28625,-0.0623 0,0.28328 0.54769,1.28377 0.70276,1.28377 0.0943,0 0.74745,-0.46938 1.45171,-1.04305 z m -47.7821,-7.80316 c 0.30686,-0.0822 0.51525,-0.31541 0.51525,-0.57655 0,-0.24115 0.18033,-0.49161 0.40073,-0.55654 1.18627,-0.34953 2.84953,-1.38529 3.84101,-2.3919 1.23941,-1.25834 1.13646,-1.41966 -0.37721,-0.59105 -1.45561,0.79683 -2.03256,0.93677 -2.03256,0.493 0,-0.37349 -0.51131,-0.33436 -1.78964,0.13695 -0.79609,0.29352 -1.81002,0.23532 -1.94312,-0.11154 -0.19182,-0.49985 0.12145,-0.77424 1.21379,-1.06298 1.22408,-0.32359 3.33216,-1.36073 4.92248,-2.42179 1.28517,-0.85746 2.86341,-2.32697 2.86341,-2.66614 0,-0.1225 -0.78077,0.19838 -1.73505,0.7131 -0.95428,0.51474 -1.90017,0.9359 -2.10197,0.9359 -0.37547,0 -0.90953,0.14295 -2.91838,0.78118 -1.19964,0.38113 -1.4732,0.4291 -4.80893,0.84334 -2.35612,0.29258 -5.33587,0.13579 -6.72345,-0.35377 -0.52137,-0.18395 -0.96111,-0.31327 -0.97717,-0.28737 -0.0488,0.0787 -0.18575,1.15462 -0.22799,1.79132 -0.1237,1.86455 2.66852,4.31738 5.71713,5.02222 1.73473,0.40108 5.16554,0.56957 6.16167,0.30262 z m 6.17195,-2.75537 c 1.66198,-1.13995 3.04517,-2.33962 3.04517,-2.64114 0,-0.59024 -1.04753,0.069 -2.81317,1.77038 -1.10642,1.06617 -1.96151,1.93849 -1.90019,1.93849 0.0613,0 0.812,-0.48047 1.66819,-1.06773 z m -0.0491,-3.74014 c 1.36383,-0.51852 3.50672,-2.77114 3.28082,-3.44884 -0.0846,-0.2537 -0.2334,-0.11511 -1.83416,1.70826 -0.54222,0.61761 -1.29501,1.3128 -1.67285,1.54487 -0.76368,0.46903 -0.68095,0.54061 0.22619,0.19571 z m -6.45719,-1.95329 c 2.09064,-0.42612 4.68754,-1.91656 6.62122,-3.80011 0.85594,-0.83374 1.55625,-1.62518 1.55625,-1.75874 0,-0.29806 -0.9226,-0.0536 -2.08807,0.55323 -4.51583,2.35135 -6.01049,2.93976 -8.15468,3.21032 -0.84423,0.10653 -1.74496,-0.58681 -1.5209,-1.17072 0.0768,-0.20017 0.009,-0.34868 -0.15891,-0.34868 -0.16098,0 -0.4554,-0.14417 -0.65424,-0.32038 -0.30854,-0.27343 -0.57966,-0.27433 -1.85001,-0.007 -1.79433,0.37883 -5.53695,0.78449 -7.23766,0.78449 -0.67937,0 -1.23194,0.0772 -1.22794,0.17175 0.0161,0.37924 0.6147,0.9303 1.48198,1.36426 0.76696,0.38376 5.06986,1.50203 6.63626,1.72468 1.01873,0.14481 5.14355,-0.10785 6.5967,-0.40398 z m 7.16987,-2.36119 c 1.14946,-0.83588 2.61058,-2.45936 2.61058,-2.90065 0,-0.52058 -0.11498,-0.4371 -1.09742,0.79679 -0.49905,0.62678 -1.34196,1.5027 -1.87312,1.94647 -1.15521,0.96516 -0.90266,1.07558 0.35996,0.15739 z m -6.7783,-1.20801 c 0.33077,-0.10521 -0.056,-0.12593 -0.91598,-0.049 -0.81866,0.0733 -1.64305,0.22382 -1.83198,0.33456 -0.39549,0.2318 1.85842,-0.003 2.74796,-0.28555 z m 1.99125,-1.55405 c 1.31866,-0.20723 2.3597,-0.57668 2.3597,-0.83745 0,-0.061 -0.23186,-0.0643 -0.51525,-0.007 -0.28338,0.057 -1.05811,0.21132 -1.72161,0.34284 -0.66351,0.13148 -1.4879,0.39976 -1.83198,0.59611 -0.4084,0.23305 -0.46659,0.31735 -0.16761,0.24281 0.2519,-0.0628 1.09644,-0.2145 1.87675,-0.33712 z m -8.38833,-0.91896 c 4.81478,-1.1296 12.17285,-4.47444 14.21171,-6.46035 1.046,-1.01883 2.1729,-2.99288 2.72922,-4.78095 0.0979,-0.31488 0.49375,-1.43096 0.8795,-2.48019 1.05614,-2.8726 1.48716,-4.80028 1.44235,-6.45069 -0.0539,-1.98207 -0.1155,-2.23248 -0.93791,-3.80414 -2.1587,-4.12552 -5.14035,-8.3022 -6.94533,-9.72895 -1.62852,-1.28727 -4.12897,-2.28201 -7.73042,-3.07537 -0.9446,-0.20808 -2.12967,-0.47213 -2.63346,-0.58675 -3.32739,-0.75707 -9.66954,-0.67676 -12.19112,0.15437 -2.9063,0.95795 -6.48703,2.79943 -7.7918,4.00712 -3.59115,3.32394 -4.84727,4.57563 -5.66457,5.6446 -1.91157,2.50021 -2.4168,3.22177 -2.78481,3.97721 -0.20856,0.42815 -0.56798,1.05053 -0.7987,1.38305 -0.23071,0.33254 -0.68332,1.56912 -1.00578,2.74797 -0.73863,2.70031 -0.78861,5.65673 -0.12065,7.13453 1.63049,3.60702 1.77337,3.84517 3.14068,5.23484 1.03252,1.04938 4.47332,3.63103 6.12044,4.59219 2.15881,1.25975 5.50277,2.55174 7.58545,2.93075 2.02446,0.36841 10.29132,0.0778 12.49515,-0.43924 z m -9.85624,-4.77213 c -0.67735,-0.59826 -1.66237,-1.67172 -2.18892,-2.38545 l -0.95739,-1.29772 -0.84108,1.10291 c -0.88726,1.16345 -1.69007,1.54502 -2.42413,1.15215 -0.39826,-0.21314 -1.41447,-2.06361 -2.04529,-3.72432 -0.13161,-0.34637 -0.34446,-0.62975 -0.47312,-0.62975 -0.12871,0 -0.73056,0.51524 -1.33755,1.14498 -1.29527,1.34383 -2.19431,1.53906 -2.56747,0.55759 -0.29654,-0.77998 -0.28331,-2.77428 0.028,-4.22607 0.28504,-1.32908 0.16777,-1.61248 -0.43973,-1.06271 -0.23111,0.20914 -0.52505,0.38026 -0.65321,0.38026 -0.12818,0 -0.55727,0.16175 -0.95357,0.35944 -0.77528,0.38677 -1.52091,0.28067 -1.72267,-0.2451 -0.15182,-0.39562 0.98864,-2.96835 2.0543,-4.63425 0.53381,-0.83447 0.77459,-1.48095 0.77034,-2.0682 l -0.007,-0.8543 -0.79838,0.85874 c -0.77606,0.83473 -1.2502,1.07971 -1.2502,0.64594 0,-0.39052 1.80821,-2.94122 2.43403,-3.43349 0.83296,-0.65522 1.67962,-0.84969 1.95648,-0.44939 0.16454,0.23789 0.19132,0.2027 0.10706,-0.14076 -0.34956,-1.42432 -0.35596,-2.00874 -0.0401,-3.65959 0.35008,-1.8297 0.95428,-2.85844 1.48584,-2.52992 0.19229,0.11881 0.16338,0.31789 -0.10587,0.72875 -0.2037,0.31089 -0.33203,0.68026 -0.28517,0.82083 0.0469,0.14057 0.31684,-0.1192 0.59998,-0.57738 0.54578,-0.88307 2.64248,-2.68308 3.12533,-2.68308 0.15778,0 0.34079,0.20618 0.40669,0.45817 0.0891,0.34096 -0.25551,0.83352 -1.34727,1.92528 -1.55856,1.55857 -1.96276,2.36096 -0.72284,1.435 0.40933,-0.30569 1.15642,-0.68129 1.66021,-0.83466 0.5038,-0.15337 1.44911,-0.63695 2.1007,-1.07465 0.88276,-0.59296 1.37886,-0.77716 1.94648,-0.72272 1.02715,0.0985 1.1779,0.88219 0.257,1.33594 l -0.64022,0.31546 1.14498,0.16581 c 0.62974,0.0912 1.43118,0.2381 1.78099,0.32645 0.83231,0.21024 2.77585,1.96779 3.13508,2.83506 l 0.28217,0.68118 1.63732,-1.22121 c 1.92722,-1.43744 2.56916,-1.77674 4.30603,-2.27599 2.14432,-0.61637 3.82089,-0.42793 5.28894,0.59444 0.88159,0.61396 0.78461,0.27702 -0.28557,-0.99215 -0.92505,-1.09705 -1.03673,-1.85484 -0.24277,-1.64722 0.22841,0.0598 0.91625,0.7718 1.52851,1.58236 1.0993,1.45533 1.1153,1.46596 1.28005,0.84996 0.22446,-0.83932 0.003,-1.61474 -0.57958,-2.02226 -0.34175,-0.23936 -0.40904,-0.40674 -0.23392,-0.58186 0.32334,-0.32333 0.995,0.3284 0.995,0.96549 0,0.25419 0.19595,0.63326 0.43543,0.84237 0.4864,0.42468 1.02096,3.42123 0.78423,4.39603 -0.11352,0.46747 -0.0838,0.51436 0.17316,0.27367 0.18083,-0.16935 0.34672,-0.93736 0.39783,-1.84197 0.0689,-1.21964 0.009,-1.61659 -0.279,-1.85581 -0.44589,-0.37006 -0.47534,-0.70621 -0.0619,-0.70621 1.05925,0 1.10172,3.31433 0.0663,5.16708 -0.33001,0.59043 -0.60002,1.08997 -0.60002,1.11011 0,0.0201 0.18034,0.0528 0.40075,0.0726 4.45417,0.40023 6.12502,1.60522 5.94982,4.29091 -0.0545,0.83637 -0.19538,1.19122 -0.572,1.44128 -0.46618,0.30955 -0.51749,0.28799 -0.76642,-0.32194 -0.85364,-2.09168 -1.37942,-3.05816 -1.66367,-3.05816 -0.38358,0 -0.60264,1.43374 -0.34922,2.28553 0.67361,2.26401 0.84677,3.07298 0.76008,3.55101 -0.0545,0.30035 0.005,0.61029 0.13174,0.68876 0.35989,0.22242 0.27127,1.17096 -0.14138,1.51342 -0.25571,0.21223 -1.13373,0.31715 -2.80521,0.33521 -2.38915,0.0259 -2.43165,0.0356 -2.35748,0.54357 0.11617,0.79605 -0.41396,1.83098 -1.12689,2.19966 -0.72626,0.37555 -2.92622,0.44064 -4.04533,0.11973 -0.67172,-0.19264 -0.7458,-0.16527 -0.77484,0.28625 -0.0887,1.37893 -0.12739,1.89773 -0.16052,2.15421 -0.0199,0.15453 -0.29223,0.44862 -0.60495,0.65352 -0.8236,0.53963 -2.5031,0.0793 -4.3671,-1.19703 l -1.48,-1.01338 -0.84092,1.74707 c -0.57084,1.18595 -1.01633,1.81376 -1.38701,1.95469 -0.30034,0.11419 -0.5702,0.20762 -0.59968,0.20762 -0.0294,0 -0.60777,-0.48948 -1.28513,-1.08773 z m 1.92343,-1.86137 c 0.30836,-0.48848 0.71381,-1.25467 0.90099,-1.70266 l 0.34033,-0.81452 -2.32935,-0.0721 c -1.28113,-0.0396 -2.36269,-0.0558 -2.40347,-0.0362 -0.34759,0.16865 2.25508,3.51349 2.7339,3.51349 0.10838,0 0.44925,-0.39966 0.7576,-0.88813 z m 7.24828,-0.0851 c 0.009,-0.0316 0.0689,-0.76687 0.132,-1.63419 0.10614,-1.45822 0.0832,-1.56442 -0.30352,-1.41069 -0.23004,0.0915 -1.21897,0.2234 -2.19764,0.29324 l -1.77941,0.12699 0.38712,0.5967 c 0.64071,0.98756 2.33853,2.08518 3.22538,2.08518 0.28535,0 0.52659,-0.0257 0.53609,-0.0573 z M 165.1903,399.2416 c 0.34636,-0.43409 0.62974,-0.83248 0.62974,-0.88531 0,-0.14349 -2.77118,-1.12651 -2.8771,-1.02059 -0.2164,0.2164 0.95521,2.69429 1.27412,2.6947 0.18893,2.2e-4 0.62688,-0.35472 0.97324,-0.7888 z m 19.52455,-1.13077 c 0.32976,-0.24113 0.41957,-0.5548 0.37502,-1.3099 -0.0322,-0.54607 -0.0829,-1.01712 -0.11247,-1.04677 -0.0297,-0.0297 -0.79936,0.30218 -1.71045,0.73741 -0.91109,0.43523 -1.75723,0.79132 -1.8803,0.79132 -0.45719,0 -0.20489,0.68231 0.29146,0.78821 0.28338,0.0605 0.72134,0.15353 0.97324,0.20679 0.93685,0.19812 1.6422,0.14101 2.06352,-0.16706 z m -25.33695,-1.09214 c 1.25407,-1.089 1.28772,-1.24314 0.43977,-2.01439 -0.41418,-0.37669 -0.81886,-0.68792 -0.8993,-0.69162 -0.0804,-0.004 -0.20245,0.3282 -0.27112,0.73753 -0.35262,2.10195 -0.41011,2.69072 -0.26272,2.69072 0.0888,0 0.53592,-0.325 0.99337,-0.72224 z m 19.30783,-0.07 c 2.02217,-0.52671 6.05577,-2.38808 7.53544,-3.47734 2.82996,-2.0833 4.77067,-6.03534 2.96374,-6.03534 -0.25585,0 -0.67127,-0.20609 -0.92317,-0.45799 -0.2519,-0.25189 -0.50217,-0.45799 -0.55615,-0.45799 -0.27902,0 -0.81784,0.77904 -0.81784,1.18246 0,0.25453 -0.2061,0.72479 -0.458,1.04501 -0.25189,0.32024 -0.45798,0.7626 -0.45798,0.98302 0,0.22043 -0.26452,0.5741 -0.5878,0.78592 -0.3233,0.21183 -0.764,0.55859 -0.97933,0.77058 -1.30366,1.28344 -1.86848,1.58025 -3.55679,1.86904 -2.06939,0.35398 -4.03528,0.21637 -5.29235,-0.37045 -1.20925,-0.5645 -1.62984,-0.92442 -2.43999,-2.08797 -0.73041,-1.04903 -0.98074,-1.05675 -2.14304,-0.066 -0.74765,0.63725 -3.09108,1.21425 -4.48093,1.10329 -1.82156,-0.14542 -4.11095,-0.8276 -4.98274,-1.48475 -0.89539,-0.67493 -2.71955,-3.42457 -2.82727,-4.26169 -0.0685,-0.53274 -0.11234,-0.55431 -0.51821,-0.25505 -0.32744,0.24146 -0.4692,0.6848 -0.54236,1.69615 -0.15164,2.09631 0.60625,4.00563 2.23194,5.62279 0.70303,0.69935 1.53461,1.41745 1.84797,1.5958 2.16662,1.23313 3.60692,1.82283 5.60765,2.29597 2.06584,0.48855 2.67218,0.53155 6.19525,0.43934 2.34041,-0.0612 4.41683,-0.23545 5.18196,-0.43474 z m 12.05249,-2.487 c 0.0396,-0.4811 -0.0257,-0.99634 -0.1453,-1.14499 -0.11946,-0.14864 -0.28893,-0.60517 -0.37647,-1.0145 -0.0875,-0.40933 -0.25253,-0.74425 -0.36669,-0.74425 -0.11419,0 -0.47793,0.40859 -0.80841,0.90798 -0.33048,0.49939 -0.95024,1.17445 -1.37723,1.50014 -0.42701,0.32568 -0.77637,0.69328 -0.77637,0.81688 0,0.4004 0.99852,0.65007 2.40447,0.60121 l 1.37398,-0.0478 0.0721,-0.87472 z m -33.88607,-2.28665 c 0.19683,-0.23717 0.21047,-0.50435 0.0477,-0.93272 -0.29379,-0.77275 -0.63733,-0.76244 -0.97961,0.0294 -0.14972,0.34636 -0.45665,0.8755 -0.68208,1.17587 -0.22543,0.30037 -0.40986,0.63737 -0.40986,0.74889 0,0.25747 1.65628,-0.5784 2.02396,-1.02143 z m 24.0082,-0.95778 c 0.54745,-0.38345 1.70361,-3.03405 2.13738,-4.9002 0.24747,-1.06454 0.23007,-1.48151 -0.12699,-3.04505 -0.59072,-2.58646 -0.61003,-2.60366 -2.53025,-2.25622 -4.67513,0.84591 -7.90123,5.05119 -6.24549,8.1411 0.52085,0.97198 0.97502,1.37059 2.25808,1.98178 1.05451,0.50233 3.83318,0.55078 4.50731,0.0786 z m -4.84749,-2.27534 c -0.88994,-0.86425 -1.14766,-1.62407 -0.93513,-2.75697 0.16373,-0.87281 0.76445,-1.43732 2.3423,-2.20114 0.99491,-0.48163 1.07541,-0.48715 1.83345,-0.12567 1.00401,0.47877 1.79396,2.09899 1.57985,3.24032 -0.15568,0.82983 -1.39597,2.08522 -2.25091,2.27832 -1.60166,0.36176 -1.78041,0.3315 -2.56956,-0.43487 z m 3.07843,-1.41436 c 0.60522,-0.6893 0.69856,-0.94267 0.56947,-1.54573 -0.18296,-0.85465 -0.0884,-0.74044 -0.7879,-0.95227 -0.5549,-0.16805 -0.56017,-0.15957 -0.17174,0.27583 0.61729,0.69195 0.49033,1.09685 -0.66199,2.11116 l -1.06273,0.93545 0.69551,0 c 0.51186,0 0.88666,-0.2177 1.41938,-0.82444 z m -1.18239,-1.43709 c -0.0401,-0.21183 -0.34067,-0.40312 -0.69822,-0.44439 -0.7323,-0.0845 -0.77602,0.0321 -0.22704,0.60555 0.46279,0.48342 1.02869,0.38485 0.92526,-0.16116 z m -6.78182,2.25796 c 0.71422,-0.79154 0.86463,-1.14789 0.99388,-2.35477 0.25371,-2.36906 -0.68024,-4.16499 -2.59871,-4.99715 -2.00817,-0.87109 -4.88496,-0.30394 -5.81829,1.14708 -1.24636,1.93764 -1.3305,2.59063 -0.54985,4.26703 1.0665,2.29026 2.42543,3.01482 5.47866,2.92119 1.61818,-0.0496 1.67029,-0.0702 2.49431,-0.98338 z m -4.69816,-0.009 c -0.65503,-0.51525 -1.21543,-2.01827 -0.98063,-2.63014 0.10244,-0.26709 0.32478,-0.35313 0.7181,-0.27794 0.51366,0.0982 0.56964,0.0347 0.56964,-0.64593 0,-0.41516 0.0957,-1.00666 0.21277,-1.31445 0.19162,-0.50399 0.30006,-0.54365 1.09106,-0.39901 1.1973,0.21894 2.01875,0.80198 2.47014,1.75321 0.3525,0.74285 0.35207,0.87706 -0.007,1.9559 -0.32889,0.99015 -0.52226,1.22077 -1.33198,1.58845 -1.23096,0.55896 -2.00477,0.55047 -2.74284,-0.0301 z m 2.13908,-0.94868 c 0.26946,-0.17148 0.25018,-0.18906 -0.0895,-0.0816 -0.54185,0.17142 -1.42876,-0.39077 -1.63334,-1.03534 -0.0962,-0.30323 -0.23569,-0.40606 -0.36937,-0.27238 -0.25,0.24998 0.14255,1.44736 0.56082,1.71067 0.28866,0.18172 0.96335,0.0401 1.5314,-0.32135 z m 0.40728,-1.74934 c 0.10402,-0.31222 -0.6076,-0.35028 -1.07039,-0.0573 -0.18719,0.11854 -0.25718,0.36507 -0.16893,0.59505 0.13447,0.35043 0.20445,0.35696 0.65055,0.0607 0.27494,-0.18255 0.53989,-0.4519 0.58877,-0.59856 z m -0.63628,-1.2483 c 0.23446,-0.0869 0.18772,-0.1329 -0.14724,-0.14525 -0.26991,-0.0106 -0.55565,0.15107 -0.63499,0.35781 -0.10785,0.28119 -0.0708,0.31778 0.14725,0.14525 0.16033,-0.12686 0.44606,-0.28787 0.63498,-0.35781 z m 17.16776,0.98166 c 0,-0.44082 -0.0999,-0.95606 -0.22198,-1.14499 -0.15579,-0.24105 -0.22199,0.10046 -0.22199,1.14499 0,1.04454 0.0663,1.38603 0.22199,1.14498 0.1221,-0.18892 0.22198,-0.70417 0.22198,-1.14498 z m -0.76249,-2.68611 c -0.1899,-0.36723 -0.52594,-0.81478 -0.74675,-0.99452 -0.35885,-0.29212 -0.38476,-0.28228 -0.2441,0.0927 0.0866,0.23071 0.15737,0.56561 0.15737,0.74425 0,0.17862 0.14356,0.32476 0.319,0.32476 0.17545,0 0.38397,0.16931 0.46338,0.37627 0.0795,0.20695 0.20109,0.31957 0.27038,0.25028 0.0693,-0.0693 -0.0294,-0.42647 -0.21928,-0.7937 z m 7.81115,23.51805 c 0.66123,-0.37922 1.20223,-0.79045 1.20223,-0.91385 0,-0.34342 -0.11088,-0.29282 -1.51627,0.69163 -1.54417,1.08169 -1.38321,1.19559 0.31404,0.22222 z m 3.36494,-0.88854 c 0.23229,-0.37587 -0.12369,-0.89255 -0.71782,-1.04164 -0.7449,-0.18696 -0.82239,-0.0945 -0.54097,0.64571 0.22658,0.59596 0.98729,0.83522 1.25879,0.39593 z"
       id="path4196"
       inkscape:connector-curvature="0"
       inkscape:export-xdpi="90"
       inkscape:export-ydpi="90" />
    <text
       xml:space="preserve"
       style="font-style:normal;font-weight:normal;font-size:50px;line-height:125%;font-family:Sans;letter-spacing:0px;word-spacing:0px;fill:#000000;fill-opacity:1;stroke:none;stroke-width:1px;stroke-linecap:butt;stroke-linejoin:miter;stroke-opacity:1"
       id="text4198"
       sodipodi:linespacing="125%"
       y="-2"
       transform="matrix(-0.14124627,-0.63915773,0.63915773,-0.14124627,0.77726186,579.37008)"
       inkscape:export-xdpi="90"
       inkscape:export-ydpi="90"><textPath
         xlink:href="#path4136"
         id="textPath4214"><tspan
   id="tspan4200">nombre</tspan></textPath></text>
    <path
       sodipodi:type="star"
       style="opacity:1;fill:#ffffff;fill-opacity:1;stroke:#000000;stroke-width:6;stroke-linecap:round;stroke-linejoin:miter;stroke-miterlimit:10;stroke-dasharray:none;stroke-dashoffset:0;stroke-opacity:1"
       id="path4219"
       sodipodi:sides="22"
       sodipodi:cx="-187.88837"
       sodipodi:cy="409.90518"
       sodipodi:r1="47.487915"
       sodipodi:r2="23.743958"
       sodipodi:arg1="1.0595656"
       sodipodi:arg2="1.2023653"
       inkscape:flatsided="false"
       inkscape:rounded="0"
       inkscape:randomized="0"
       d="m -164.65486,451.32144 -14.68207,-19.26567 2.07265,24.13365 -8.65958,-22.62169 -4.81055,23.74001 -1.93554,-24.14504 -11.30402,21.42308 4.94531,-23.7123 -16.88171,17.37058 11.42552,-21.35853 -21.09174,11.91083 16.9801,-17.27442 -23.59305,5.48612 21.15905,-11.79084 -24.18298,-1.38303 23.62383,-5.35203 -22.81376,-8.14014 24.17474,1.52036 -19.5963,-14.23778 22.76716,8.26958 -14.79126,-19.18197 19.51511,14.34886 -8.78793,-22.57214 14.68207,19.26567 -2.07264,-24.13366 8.65958,22.62169 4.81055,-23.74 1.93554,24.14504 11.30402,-21.42308 -4.94531,23.7123 16.8817,-17.37059 -11.42551,21.35853 21.09174,-11.91082 -16.9801,17.27442 23.59304,-5.48613 -21.15905,11.79084 24.18298,1.38303 -23.62382,5.35204 22.81375,8.14014 -24.17473,-1.52037 19.59629,14.23779 -22.76715,-8.26959 14.79126,19.18197 -19.51511,-14.34886 z"
       inkscape:transform-center-x="-1.2000066"
       inkscape:transform-center-y="-3.2840637"
       transform="matrix(0.70000315,0,0,1.1429847,581.04033,-79.823365)"
       inkscape:export-xdpi="90"
       inkscape:export-ydpi="90" />
    <path
       style="fill:none;fill-rule:evenodd;stroke:#000000;stroke-width:3;stroke-linecap:butt;stroke-linejoin:miter;stroke-miterlimit:4;stroke-dasharray:none;stroke-opacity:1;marker-end:url(#Arrow2Mend)"
       d="M -4.0101499,403.81382 C 96.016373,504.66166 129.41061,453.22183 162.66502,429.06763"
       id="path4240"
       inkscape:connector-curvature="0"
       sodipodi:nodetypes="cc"
       inkscape:export-xdpi="90"
       inkscape:export-ydpi="90" />
    <text
       xml:space="preserve"
       style="font-style:normal;font-weight:normal;font-size:27.392519px;line-height:125%;font-family:Sans;letter-spacing:0px;word-spacing:0px;fill:#000000;fill-opacity:1;stroke:none;stroke-width:1px;stroke-linecap:butt;stroke-linejoin:miter;stroke-opacity:1"
       x="-75.6903"
       y="383.28256"
       id="text4872"
       sodipodi:linespacing="125%"
       transform="scale(1.0518215,0.95073166)"
       inkscape:export-xdpi="90"
       inkscape:export-ydpi="90"><tspan
         sodipodi:role="line"
         id="tspan4874"
         x="-75.6903"
         y="383.28256">dibujo del</tspan><tspan
         sodipodi:role="line"
         x="-75.6903"
         y="417.52322"
         id="tspan4876">monstruo</tspan></text>
    <path
       style="fill:none;fill-rule:evenodd;stroke:#000000;stroke-width:2.5;stroke-linecap:butt;stroke-linejoin:miter;stroke-miterlimit:4;stroke-dasharray:none;stroke-opacity:1;marker-start:url(#Arrow2Mstart)"
       d="m 506.11689,409.87473 c 41.012,31.67856 105.02168,35.76587 135.36044,-20.20305"
       id="path4878"
       inkscape:connector-curvature="0"
       sodipodi:nodetypes="cc"
       inkscape:export-xdpi="90"
       inkscape:export-ydpi="90" />
    <text
       xml:space="preserve"
       style="font-style:normal;font-weight:normal;font-size:27.33595467px;line-height:125%;font-family:Sans;letter-spacing:0px;word-spacing:0px;fill:#000000;fill-opacity:1;stroke:none;stroke-width:1px;stroke-linecap:butt;stroke-linejoin:miter;stroke-opacity:1"
       x="695.55603"
       y="345.47443"
       id="text4912"
       sodipodi:linespacing="125%"
       transform="scale(1.0040395,0.99597676)"
       inkscape:export-xdpi="90"
       inkscape:export-ydpi="90"><tspan
         sodipodi:role="line"
         id="tspan4914"
         x="695.55603"
         y="345.47443"
         style="text-align:center;text-anchor:middle"><tspan
   style="font-style:italic;font-variant:normal;font-weight:normal;font-stretch:normal;font-family:Sans;-inkscape-font-specification:'Sans Italic'"
   id="tspan4924">marker</tspan> para</tspan><tspan
         sodipodi:role="line"
         x="695.55603"
         y="379.64438"
         id="tspan4918"><tspan
   style="text-align:center;text-anchor:middle"
   id="tspan4922">escanear con ap</tspan>p.</tspan></text>
  </g>
</svg>
