<?xml version="1.0" encoding="UTF-8" standalone="no"?>
<svg
   xmlns:dc="http://purl.org/dc/elements/1.1/"
   xmlns:cc="http://creativecommons.org/ns#"
   xmlns:rdf="http://www.w3.org/1999/02/22-rdf-syntax-ns#"
   xmlns:svg="http://www.w3.org/2000/svg"
   xmlns="http://www.w3.org/2000/svg"
   xmlns:sodipodi="http://sodipodi.sourceforge.net/DTD/sodipodi-0.dtd"
   xmlns:inkscape="http://www.inkscape.org/namespaces/inkscape"
   width="64px"
   height="64px"
   viewBox="0 0 64 64"
   version="1.1"
   id="svg2"
   inkscape:version="0.91 r13725"
   sodipodi:docname="application-vnd.oasis.opendocument.database.svg">
  <metadata
     id="metadata29">
    <rdf:RDF>
      <cc:Work
         rdf:about="">
        <dc:format>image/svg+xml</dc:format>
        <dc:type
           rdf:resource="http://purl.org/dc/dcmitype/StillImage" />
      </cc:Work>
    </rdf:RDF>
  </metadata>
  <defs
     id="defs27" />
  <sodipodi:namedview
     pagecolor="#ffffff"
     bordercolor="#666666"
     borderopacity="1"
     objecttolerance="10"
     gridtolerance="10"
     guidetolerance="10"
     inkscape:pageopacity="0"
     inkscape:pageshadow="2"
     inkscape:window-width="1680"
     inkscape:window-height="994"
     id="namedview25"
     showgrid="false"
     inkscape:snap-text-baseline="false"
     inkscape:zoom="3.6875"
     inkscape:cx="32"
     inkscape:cy="32"
     inkscape:window-x="0"
     inkscape:window-y="27"
     inkscape:window-maximized="1"
     inkscape:current-layer="svg2" />
  <path
     inkscape:connector-curvature="0"
     id="path5"
     d="M 10.671875,0 C 9.296875,0 8,1.355469 8,2.789062 L 8,61.210938 C 8,62.566406 9.375,64 10.671875,64 l 42.65625,0 C 54.625,64 56,62.566406 56,61.210938 L 56,18 38,0 Z m 0,0"
     style="fill:#a13538;fill-opacity:1;fill-rule:nonzero;stroke:none" />
  <path
     inkscape:connector-curvature="0"
     id="path7"
     d="M 8,48 8,61.335938 C 8,62.632812 9.375,64 10.664062,64 l 42.671876,0 C 54.625,64 56,62.632812 56,61.335938 L 56,48 Z m 0,0"
     style="fill:#000000;fill-opacity:0.19607801;fill-rule:nonzero;stroke:none" />
  <path
     inkscape:connector-curvature="0"
     id="path9"
     d="m 42,18 14,14 0,-14 z m 0,0"
     style="fill:#000000;fill-opacity:0.19607801;fill-rule:nonzero;stroke:none" />
  <path
     inkscape:connector-curvature="0"
     id="path17"
     d="M 38,0 55.984375,18 40.757812,18 C 39.410156,18 38,16.574219 38,15.226562 Z m 0,0"
     style="fill:#ffffff;fill-opacity:0.39215698;fill-rule:nonzero;stroke:none" />
  <path
     inkscape:connector-curvature="0"
     id="path19"
     d="m 32,21.992188 c -5.523438,0 -10,1.398437 -10,3.128906 l 0,2.496094 c 0,1.730468 4.476562,3.128906 10,3.128906 5.523438,0 10,-1.398438 10,-3.128906 l 0,-2.496094 c 0,-1.730469 -4.476562,-3.128906 -10,-3.128906 z m 0,0"
     style="fill:#ffffff;fill-opacity:1;fill-rule:nonzero;stroke:none" />
  <path
     inkscape:connector-curvature="0"
     id="path21"
     d="m 31.96875,31.992188 c -4.480469,0 -8.253906,-0.914063 -9.527344,-2.183594 C 22.140625,30.101562 22,30.417969 22,30.746094 l 0,2.5 c 0,1.726562 4.476562,3.128906 10,3.128906 5.523438,0 10,-1.402344 10,-3.128906 l 0,-2.5 c 0,-0.328125 -0.175781,-0.644532 -0.46875,-0.9375 -1.273438,1.269531 -5.085938,2.183594 -9.5625,2.183594 z m 0,0"
     style="fill:#ffffff;fill-opacity:1;fill-rule:nonzero;stroke:none" />
  <path
     inkscape:connector-curvature="0"
     id="path23"
     d="m 31.96875,37.617188 c -4.480469,0 -8.253906,-0.914063 -9.527344,-2.179688 C 22.140625,35.730469 22,36.042969 22,36.375 l 0,2.496094 C 22,40.601562 26.476562,42 32,42 37.523438,42 42,40.601562 42,38.871094 L 42,36.375 c 0,-0.332031 -0.175781,-0.644531 -0.46875,-0.9375 -1.273438,1.265625 -5.085938,2.179688 -9.5625,2.179688 z m 0,0"
     style="fill:#ffffff;fill-opacity:1;fill-rule:nonzero;stroke:none" />
  <text
     xml:space="preserve"
     style="font-style:normal;font-weight:normal;font-size:40px;line-height:125%;font-family:Sans;letter-spacing:0px;word-spacing:0px;fill:#000000;fill-opacity:1;stroke:none;stroke-width:1px;stroke-linecap:butt;stroke-linejoin:miter;stroke-opacity:1"
     x="27.118645"
     y="58.033897"
     id="text4167"
     sodipodi:linespacing="125%"><tspan
       sodipodi:role="line"
       id="tspan4169"
       x="27.118645"
       y="58.033897"
       style="fill:#ffffff" /></text>
  <text
     xml:space="preserve"
     style="font-style:normal;font-weight:normal;font-size:16.58878517px;line-height:125%;font-family:Sans;letter-spacing:0px;word-spacing:0px;fill:#000000;fill-opacity:1;stroke:none;stroke-width:1px;stroke-linecap:butt;stroke-linejoin:miter;stroke-opacity:1"
     x="17.854403"
     y="61.986469"
     id="text4171"
     sodipodi:linespacing="125%"><tspan
       sodipodi:role="line"
       id="tspan4173"
       x="17.854403"
       y="61.986469"
       style="fill:#ffffff">MO</tspan></text>
</svg>
